<?xml version="1.0" standalone="no"?>
<!DOCTYPE svg PUBLIC "-//W3C//DTD SVG 20010904//EN"
 "http://www.w3.org/TR/2001/REC-SVG-20010904/DTD/svg10.dtd">
<svg version="1.0" xmlns="http://www.w3.org/2000/svg"
 width="150.000000pt" height="106.000000pt" viewBox="0 0 150.000000 106.000000"
 preserveAspectRatio="xMidYMid meet">

<g transform="translate(0.000000,106.000000) scale(0.100000,-0.100000)"
fill="#000000" stroke="none">
<path d="M724 1050 c-117 -17 -232 -76 -310 -162 -23 -25 -59 -80 -79 -123
-31 -64 -39 -75 -47 -60 -6 9 -10 33 -11 52 -1 27 6 41 27 59 15 13 34 24 42
24 8 0 14 4 14 9 0 18 -64 -8 -88 -34 -39 -46 -22 -108 55 -201 66 -78 243
-212 264 -199 5 4 8 1 7 -6 -4 -19 272 -154 377 -184 59 -18 117 -27 170 -28
79 -1 107 6 139 39 20 19 20 80 1 114 -13 23 -14 22 -8 -25 7 -62 -14 -92 -72
-105 -22 -5 -41 -7 -43 -5 -2 2 7 19 21 37 14 18 41 65 59 103 29 62 33 82 36
173 4 87 1 114 -19 174 -74 232 -302 380 -535 348z m24 -31 c-2 -6 -8 -10 -13
-10 -5 0 -11 4 -13 10 -2 6 4 11 13 11 9 0 15 -5 13 -11z m62 -59 c0 -5 -4
-10 -10 -10 -5 0 -10 5 -10 10 0 6 5 10 10 10 6 0 10 -4 10 -10z m-165 -35 c0
-27 -3 -30 -30 -30 -21 0 -31 5 -33 18 -5 25 17 49 42 45 16 -2 21 -10 21 -33z
m265 25 c0 -5 -4 -10 -10 -10 -5 0 -10 5 -10 10 0 6 5 10 10 10 6 0 10 -4 10
-10z m118 -23 c2 -9 -4 -20 -12 -23 -21 -8 -46 13 -39 32 8 20 47 13 51 -9z
m-58 -72 c0 -8 -4 -15 -9 -15 -13 0 -22 16 -14 24 11 11 23 6 23 -9z m-220
-51 c0 -8 -9 -14 -20 -14 -22 0 -28 26 -7 33 16 6 27 -1 27 -19z m248 -21 c5
-17 -26 -29 -40 -15 -6 6 -7 15 -3 22 9 14 37 9 43 -7z m-398 -12 c7 -13 7
-28 0 -46 -8 -22 -15 -26 -42 -23 -39 4 -61 45 -38 72 18 23 67 20 80 -3z
m-140 -5 c0 -3 -4 -8 -10 -11 -5 -3 -10 -1 -10 4 0 6 5 11 10 11 6 0 10 -2 10
-4z m438 -77 c4 -30 -22 -46 -44 -28 -15 12 -19 41 -7 53 16 16 48 1 51 -25z
m-188 6 c0 -8 -7 -15 -15 -15 -16 0 -20 12 -8 23 11 12 23 8 23 -8z m463 1 c6
-15 -11 -36 -29 -36 -14 0 -27 28 -18 41 8 14 41 11 47 -5z m-803 -26 c0 -5
-4 -10 -10 -10 -5 0 -10 5 -10 10 0 6 5 10 10 10 6 0 10 -4 10 -10z m330 -10
c39 -39 14 -110 -40 -110 -33 0 -57 21 -66 57 -6 21 -1 31 20 50 33 28 60 29
86 3z m-175 0 c3 -5 1 -10 -4 -10 -6 0 -11 5 -11 10 0 6 2 10 4 10 3 0 8 -4
11 -10z m423 -60 c2 0 10 -16 17 -35 17 -40 8 -75 -27 -99 -30 -21 -81 -20
-101 2 -63 70 -11 165 78 140 16 -4 31 -8 33 -8z m-393 -25 c0 -25 -4 -30 -24
-30 -32 0 -49 28 -31 50 7 9 23 15 34 13 16 -2 21 -10 21 -33z m-135 -1 c0 -8
-4 -12 -10 -9 -5 3 -10 10 -10 16 0 5 5 9 10 9 6 0 10 -7 10 -16z m220 -59 c0
-8 -9 -15 -20 -15 -20 0 -26 11 -13 23 12 13 33 7 33 -8z m428 -73 c2 -7 -3
-12 -12 -12 -9 0 -16 7 -16 16 0 17 22 14 28 -4z m-230 -9 c-5 -26 -38 -29
-38 -4 0 15 6 21 21 21 14 0 19 -5 17 -17z"/>
<path d="M90 928 c-60 -31 -83 -66 -82 -123 1 -81 42 -147 174 -279 95 -95
125 -132 150 -185 42 -88 152 -199 238 -240 90 -43 184 -57 286 -41 73 11 87
10 145 -8 237 -73 409 -65 473 21 28 38 27 108 -4 167 -27 53 -104 152 -152
195 l-33 30 25 -30 c13 -16 37 -43 52 -60 15 -16 43 -57 62 -89 30 -50 36 -69
36 -117 0 -52 -3 -59 -34 -87 -44 -38 -124 -56 -209 -47 -169 18 -328 73 -567
196 -197 101 -318 187 -451 319 -117 117 -151 173 -152 254 -1 43 3 52 35 81
47 44 125 61 217 47 l66 -9 -83 -2 c-55 -1 -96 -7 -119 -18 -38 -18 -73 -65
-73 -98 0 -147 231 -372 560 -543 225 -118 402 -179 550 -189 240 -16 301 109
146 300 -47 57 -66 64 -66 26 0 -13 4 -18 12 -13 6 4 8 3 5 -3 -4 -6 0 -27 8
-47 23 -55 19 -98 -11 -127 -24 -23 -32 -24 -137 -23 -98 0 -124 4 -207 32
-359 119 -720 395 -720 548 0 32 6 49 22 64 19 18 74 39 103 40 6 0 21 9 35
20 l25 20 -25 1 -25 1 25 7 c20 6 13 10 -41 19 -109 20 -208 16 -259 -10z
m105 -47 c-101 -45 -82 -154 52 -303 l65 -73 -70 72 c-89 90 -126 159 -119
220 5 45 28 79 62 94 40 16 49 8 10 -10z m76 -15 c-201 -73 32 -357 477 -580
260 -131 496 -167 575 -87 23 23 27 82 7 123 -11 22 -10 22 4 4 23 -29 30 -82
15 -117 -47 -115 -318 -80 -640 82 -284 142 -529 367 -529 486 0 51 52 102
105 102 13 0 8 -5 -14 -13z m79 -381 c13 -14 21 -25 18 -25 -2 0 -15 11 -28
25 -13 14 -21 25 -18 25 2 0 15 -11 28 -25z m51 -42 c13 -16 12 -17 -3 -4 -17
13 -22 21 -14 21 2 0 10 -8 17 -17z m79 -59 c0 -3 -13 4 -30 16 -16 12 -30 24
-30 26 0 3 14 -4 30 -16 17 -12 30 -24 30 -26z m50 -30 c0 -2 -9 0 -20 6 -11
6 -20 13 -20 16 0 2 9 0 20 -6 11 -6 20 -13 20 -16z m50 -30 c0 -2 -9 0 -20 6
-11 6 -20 13 -20 16 0 2 9 0 20 -6 11 -6 20 -13 20 -16z m-160 -14 c0 -5 -4
-10 -10 -10 -5 0 -10 5 -10 10 0 6 5 10 10 10 6 0 10 -4 10 -10z m270 -45 c0
-3 -18 4 -40 15 -22 11 -40 23 -40 25 0 3 18 -4 40 -15 22 -11 40 -23 40 -25z
m719 -52 c2 -65 -53 -110 -145 -117 l-59 -5 53 9 c106 20 149 60 139 133 -4
28 -3 36 3 22 5 -11 9 -30 9 -42z m-894 37 c3 -5 -1 -10 -10 -10 -9 0 -13 5
-10 10 3 6 8 10 10 10 2 0 7 -4 10 -10z m285 -35 c25 -13 41 -24 35 -24 -5 0
-30 11 -55 24 -25 13 -40 24 -35 24 6 0 30 -11 55 -24z m80 -35 c8 -5 11 -10
5 -10 -5 0 -17 5 -25 10 -8 5 -10 10 -5 10 6 0 17 -5 25 -10z m-90 -48 c6 -4
-22 -22 -37 -22 -16 0 -43 28 -43 46 0 11 7 11 38 -3 20 -10 39 -19 42 -21z
m257 -8 c-3 -3 -12 -4 -19 -1 -8 3 -5 6 6 6 11 1 17 -2 13 -5z m40 -10 c-3 -3
-12 -4 -19 -1 -8 3 -5 6 6 6 11 1 17 -2 13 -5z m56 -11 c-7 -2 -19 -2 -25 0
-7 3 -2 5 12 5 14 0 19 -2 13 -5z"/>
</g>
</svg>
